# xmcd
#
# Track frame offsets: 
#        150
#        17150
#        34972
#        48902
#        60116
#        76029
#        83975
#        95807
#        112837
#        123640
#        135624
#        152100
#        168053
#        185085
#        201446
#        213188
#
# Disc length: 2989 seconds
#
# Revision: 0
# Processed by: cddbd v1.5.2PL0 Copyright (c) Steve Scherf et al.
# Submitted via: ExactAudioCopy v0.99pb5
#
DISCID=d00bab10
DTITLE=Various Artist - Try to Remember
DYEAR=1990
DGENRE=Folk
TTITLE0=Today
TTITLE1=Donna Donna
TTITLE2=Jamaica Farewell
TTITLE3=Gone the rainbow
TTITLE4=Try to Remember
TTITLE5=Joe hill
TTITLE6=Over the over
TTITLE7=Street of London
TTITLE8=Lemon Tree
TTITLE9=Michael Row the boat ashore
TTITLE10=Blowin in the wind
TTITLE11=Try to remember (Guitar Version)
TTITLE12=Street of London (Guitar Version)
TTITLE13=Blowin in the wind (Guitar Version)
TTITLE14=Over and over (Alternate Version)
TTITLE15=Lemen tree (Alternate Version)
EXTD=
EXTT0=
EXTT1=
EXTT2=
EXTT3=
EXTT4=
EXTT5=
EXTT6=
EXTT7=
EXTT8=
EXTT9=
EXTT10=
EXTT11=
EXTT12=
EXTT13=
EXTT14=
EXTT15=
PLAYORDER=
